<mxfile host="app.diagrams.net" modified="2022-07-01T16:46:29.052Z" agent="5.0 (Macintosh; Intel Mac OS X 10_15_7) AppleWebKit/537.36 (KHTML, like Gecko) Chrome/103.0.0.0 Safari/537.36" etag="MKNdQqNGqV7LxtJotYi-" version="20.0.4" type="github">
  <diagram id="7ARIJulqibOma9k9xZ0L" name="Page-1">
    <mxGraphModel dx="3346" dy="2981" grid="1" gridSize="10" guides="1" tooltips="1" connect="1" arrows="1" fold="1" page="1" pageScale="1" pageWidth="850" pageHeight="1100" math="0" shadow="0">
      <root>
        <mxCell id="0" />
        <mxCell id="1" parent="0" />
        <mxCell id="F0DnkDRc1rh83wPBzXUS-4" value="" style="whiteSpace=wrap;html=1;aspect=fixed;fillColor=#4D4D4D;strokeColor=none;" vertex="1" parent="1">
          <mxGeometry y="-10" width="850" height="850" as="geometry" />
        </mxCell>
        <mxCell id="F0DnkDRc1rh83wPBzXUS-2" value="" style="whiteSpace=wrap;html=1;aspect=fixed;fillColor=#ffe6cc;strokeColor=none;" vertex="1" parent="1">
          <mxGeometry x="520" y="160" width="160" height="160" as="geometry" />
        </mxCell>
        <mxCell id="F0DnkDRc1rh83wPBzXUS-3" value="" style="whiteSpace=wrap;html=1;aspect=fixed;fillColor=#ffe6cc;strokeColor=none;" vertex="1" parent="1">
          <mxGeometry x="520" y="383" width="160" height="160" as="geometry" />
        </mxCell>
        <mxCell id="F0DnkDRc1rh83wPBzXUS-7" value="" style="shape=flexArrow;endArrow=classic;html=1;rounded=0;fillColor=#FFFFFF;entryX=0;entryY=0.5;entryDx=0;entryDy=0;exitX=1;exitY=0.5;exitDx=0;exitDy=0;strokeColor=none;" edge="1" parent="1" source="F0DnkDRc1rh83wPBzXUS-1" target="F0DnkDRc1rh83wPBzXUS-2">
          <mxGeometry width="50" height="50" relative="1" as="geometry">
            <mxPoint x="400" y="980" as="sourcePoint" />
            <mxPoint x="450" y="930" as="targetPoint" />
          </mxGeometry>
        </mxCell>
        <mxCell id="F0DnkDRc1rh83wPBzXUS-8" value="" style="shape=flexArrow;endArrow=classic;html=1;rounded=0;fillColor=#FFFFFF;entryX=0;entryY=0.5;entryDx=0;entryDy=0;exitX=0.5;exitY=1;exitDx=0;exitDy=0;strokeColor=none;" edge="1" parent="1" source="F0DnkDRc1rh83wPBzXUS-1" target="F0DnkDRc1rh83wPBzXUS-3">
          <mxGeometry width="50" height="50" relative="1" as="geometry">
            <mxPoint x="400" y="980" as="sourcePoint" />
            <mxPoint x="450" y="930" as="targetPoint" />
            <Array as="points">
              <mxPoint x="200" y="460" />
            </Array>
          </mxGeometry>
        </mxCell>
        <mxCell id="F0DnkDRc1rh83wPBzXUS-1" value="" style="whiteSpace=wrap;html=1;aspect=fixed;fillColor=#ffe6cc;strokeColor=none;" vertex="1" parent="1">
          <mxGeometry x="120" y="160" width="160" height="160" as="geometry" />
        </mxCell>
        <mxCell id="F0DnkDRc1rh83wPBzXUS-9" value="" style="shape=flexArrow;endArrow=classic;html=1;rounded=0;fillColor=#FFFFFF;entryX=0.857;entryY=0;entryDx=0;entryDy=0;entryPerimeter=0;strokeColor=none;" edge="1" parent="1" source="F0DnkDRc1rh83wPBzXUS-3" target="F0DnkDRc1rh83wPBzXUS-11">
          <mxGeometry width="50" height="50" relative="1" as="geometry">
            <mxPoint x="400" y="980" as="sourcePoint" />
            <mxPoint x="450" y="930" as="targetPoint" />
          </mxGeometry>
        </mxCell>
        <mxCell id="F0DnkDRc1rh83wPBzXUS-11" value="" style="rounded=0;whiteSpace=wrap;html=1;fillColor=#ffe6cc;strokeColor=none;" vertex="1" parent="1">
          <mxGeometry x="120" y="630" width="560" height="100" as="geometry" />
        </mxCell>
      </root>
    </mxGraphModel>
  </diagram>
</mxfile>
